<svg xmlns="http://www.w3.org/2000/svg" viewBox="0 0 100 100" width="100%" height="100%">
  <defs>
    <linearGradient id="favRed" x1="0%" y1="0%" x2="100%" y2="100%">
      <stop offset="0%" stop-color="#EF4444" />
      <stop offset="100%" stop-color="#B91C1C" />
    </linearGradient>
    <linearGradient id="favGold" x1="0%" y1="0%" x2="100%" y2="100%">
      <stop offset="0%" stop-color="#FBBF24" />
      <stop offset="100%" stop-color="#F59E0B" />
    </linearGradient>
  </defs>

  <rect width="100" height="100" rx="24" fill="#FFFFFF" />
  
  <g transform="translate(10, 6) scale(0.42)">
    <!-- Rice Fluff Clouds in Bowl -->
    <path d="M 60 92 C 50 68, 80 50, 100 62 C 115 48, 145 48, 158 65 C 175 52, 205 68, 198 92 Z" 
          fill="#FFF7ED" stroke="url(#favRed)" stroke-width="8" stroke-linejoin="round" />

    <!-- Center Heart in Steam -->
    <path d="M 130 38 C 130 38, 120 22, 108 28 C 96 34, 100 50, 130 72 C 160 50, 164 34, 152 28 C 140 22, 130 38, 130 38 Z" 
          fill="url(#favRed)" />

    <!-- Rice Bowl (Smooth curved bowl) -->
    <path d="M 50 90 Q 130 90 210 90 C 205 145, 55 145, 50 90 Z" 
          fill="url(#favRed)" stroke="#FFFFFF" stroke-width="4" />

    <!-- Bowl Highlight Rim -->
    <path d="M 58 98 Q 130 102 202 98" 
          fill="none" stroke="#FEE2E2" stroke-width="5" stroke-linecap="round" opacity="0.85" />

    <!-- Caring Gentle Hand Supporting the Bowl -->
    <path d="M 45 135 C 50 165, 80 185, 125 185 C 165 185, 195 165, 212 142 C 218 135, 212 125, 202 130 C 180 148, 155 158, 125 158 C 95 158, 70 148, 55 125 C 48 115, 42 122, 45 135 Z" 
          fill="url(#favRed)" />
  </g>
</svg>
